<?xml version="1.0" encoding="UTF-8"?>
<svg width="24" height="16" viewBox="0 0 24 16" fill="none" xmlns="http://www.w3.org/2000/svg">
  <rect width="24" height="16" fill="#002868"/>
  
  <!-- Beehive -->
  <path d="M12 4C10 4 8 6 8 8C8 10 10 12 12 12C14 12 16 10 16 8C16 6 14 4 12 4Z" fill="#FFD700"/>
  <path d="M12 6C11 6 10 7 10 8C10 9 11 10 12 10C13 10 14 9 14 8C14 7 13 6 12 6Z" fill="#FFD700"/>
  <path d="M12 8C11.5 8 11 8.5 11 9C11 9.5 11.5 10 12 10C12.5 10 13 9.5 13 9C13 8.5 12.5 8 12 8Z" fill="#FFD700"/>
</svg> 